<svg id="Capa_1" data-name="Capa 1" xmlns="http://www.w3.org/2000/svg" viewBox="0 0 30 14"><defs><style>.cls-1,.cls-2{fill:#0f172a;}.cls-2{stroke:#0f172a;stroke-miterlimit:10;stroke-width:0.35px;}</style></defs><title>copy</title><rect width="14" height="14" rx="1.54" ry="1.54"/><rect x="16" width="14" height="14" rx="1.54" ry="1.54"/><path class="cls-1" d="M9.5,7.83H8.67V6.17H9.5A1.67,1.67,0,1,0,7.83,4.5v.83H6.17V4.5A1.67,1.67,0,1,0,4.5,6.17h.83V7.83H4.5A1.67,1.67,0,1,0,6.17,9.5h0V8.67H7.83V9.5h0A1.67,1.67,0,1,0,9.5,7.83Zm0-4.17a.85.85,0,0,1,.84.84.84.84,0,0,1-.84.83H8.67V4.5A.84.84,0,0,1,9.5,3.66ZM3.66,4.5a.85.85,0,0,1,.84-.84.84.84,0,0,1,.83.84v.83H4.5A.84.84,0,0,1,3.66,4.5Zm.84,5.84a.85.85,0,0,1-.84-.84.84.84,0,0,1,.84-.83h.83V9.5A.84.84,0,0,1,4.5,10.34ZM6.17,7.83V6.17H7.83V7.83ZM9.5,10.34a.84.84,0,0,1-.83-.84h0V8.67H9.5a.84.84,0,0,1,.84.83A.85.85,0,0,1,9.5,10.34Z" transform="translate(0 0)"/><path class="cls-2" d="M20.15,3h1v3.9h0c.21-.31.43-.6.63-.87l2.47-3h1.3L22.7,6.39,25.85,11H24.62L22,7.07,21.19,8V11h-1Z" transform="translate(0 0)"/></svg>