<svg xmlns="http://www.w3.org/2000/svg" viewBox="0 0 30 30"><defs><style>.cls-1{fill:#fff;}</style></defs><title>icon</title><g id="Capa_2" data-name="Capa 2"><g id="Capa_1-2" data-name="Capa 1"><g id="Capa_2-2" data-name="Capa 2"><g id="Capa_1-2-2" data-name="Capa 1-2"><path class="cls-1" d="M23.85,13.35C19.05,10.5,11,10.23,6.45,11.63A1.38,1.38,0,0,1,5.62,9C11,7.42,19.72,7.75,25.28,11a1.46,1.46,0,0,1,.52,2,1.57,1.57,0,0,1-1.95.38m-.15,4.2a1.13,1.13,0,0,1-1.55.39l0,0A19.34,19.34,0,0,0,7.2,16.2,1.14,1.14,0,0,1,6.53,14h0a21.93,21.93,0,0,1,16.87,2,1.06,1.06,0,0,1,.33,1.46l0,0m-1.82,4.13a.91.91,0,0,1-1.23.31l0,0c-3.52-2.17-8-2.62-13.2-1.42A.93.93,0,0,1,7,18.75H7C12.67,17.5,17.6,18,21.53,20.4a.9.9,0,0,1,.39,1.21l0,0M15,0A15,15,0,1,0,30,15,15,15,0,0,0,15,0"/></g></g></g></g></svg>